Coordinates
version=1
nRows=20
nColumns=63
inDegrees=yes

Units are S.I. units (second, meters, Newtons, ...)
If the header above contains a line with 'inDegrees', this indicates whether rotational values are in degrees (yes) or radians (no).

endheader
time	pelvis_tilt	pelvis_list	pelvis_rotation	pelvis_tx	pelvis_ty	pelvis_tz	hip_flexion_r	hip_adduction_r	hip_rotation_r	knee_angle_r	knee_angle_r_beta	ankle_angle_r	subtalar_angle_r	mtp_angle_r	hip_flexion_l	hip_adduction_l	hip_rotation_l	knee_angle_l	knee_angle_l_beta	ankle_angle_l	subtalar_angle_l	mtp_angle_l	L5_S1_Flex_Ext	L5_S1_Lat_Bending	L5_S1_axial_rotation	L4_L5_Flex_Ext	L4_L5_Lat_Bending	L4_L5_axial_rotation	L3_L4_Flex_Ext	L3_L4_Lat_Bending	L3_L4_axial_rotation	L2_L3_Flex_Ext	L2_L3_Lat_Bending	L2_L3_axial_rotation	L1_L2_Flex_Ext	L1_L2_Lat_Bending	L1_L2_axial_rotation	L1_T12_Flex_Ext	L1_T12_Lat_Bending	L1_T12_axial_rotation	Abs_r3	Abs_r2	Abs_r1	Abs_t1	Abs_t2	neck_flexion	neck_bending	neck_rotation	arm_flex_r	arm_add_r	arm_rot_r	elbow_flex_r	pro_sup_r	wrist_flex_r	wrist_dev_r	arm_flex_l	arm_add_l	arm_rot_l	elbow_flex_l	pro_sup_l	wrist_flex_l	wrist_dev_l
0.000000	-6.238900	-4.105243	97.255253	0.309583	0.693027	0.924506	3.887761	-1.078029	-0.000622	2.483125	0.043339	16.387137	-0.857382	0.000000	6.721064	1.372304	-3.211520	6.063648	0.105831	19.038097	8.380640	0.000000	0.436558	0.039496	-1.284611	0.810731	0.052530	-1.364899	0.717221	0.096031	-1.364899	0.498942	0.096031	-1.124035	0.405387	0.080541	-1.043746	0.249449	0.061180	-0.963458	3.118287	0.446790	-7.144621	0.000000	0.000000	26.170281	1.293980	3.442244	17.952574	-3.642616	73.924199	37.881714	2.317322	-4.273876	10.379500	14.173722	-7.362146	61.193274	45.402210	64.768474	-2.010646	-1.379413
0.016667	-5.970407	-3.982976	98.301973	0.307567	0.693673	0.922857	3.446880	-0.849592	-1.061118	2.087587	0.036435	16.538311	-0.485864	0.000000	6.575817	1.197485	-1.931973	5.967690	0.104156	19.318473	8.417002	0.000000	0.430781	0.070596	-1.478668	0.800004	0.093893	-1.571085	0.707731	0.171648	-1.571085	0.492340	0.171648	-1.293835	0.400024	0.143960	-1.201418	0.246148	0.109354	-1.109001	3.077028	0.798600	-8.223909	0.000000	0.000000	26.449174	1.040703	2.922520	17.158432	-3.620623	73.244875	37.475212	3.187245	-2.551098	9.382221	13.759333	-7.408698	61.428265	44.752344	67.509615	-0.031891	-1.535125
0.033333	-5.764442	-3.885257	99.195080	0.305922	0.694207	0.921527	3.082097	-0.672908	-1.888091	1.759017	0.030701	16.647621	-0.294627	0.000000	6.468137	1.067766	-0.897268	5.910499	0.103158	19.540427	8.498312	0.000000	0.422209	0.094062	-1.646491	0.784084	0.125102	-1.749396	0.693647	0.228701	-1.749396	0.482542	0.228701	-1.440679	0.392063	0.191810	-1.337774	0.241250	0.145701	-1.234868	3.015795	1.064044	-9.157287	0.000000	0.000000	26.669123	0.790046	2.455339	16.500043	-3.577524	72.714262	37.137481	3.921274	-1.128853	8.624065	13.333687	-7.474928	61.473133	44.304426	70.034814	1.447515	-1.583825
0.050000	-5.614826	-3.808081	99.946088	0.304614	0.694640	0.920494	2.785644	-0.542574	-2.502912	1.492065	0.026041	16.719358	-0.264106	0.000000	6.393116	0.978059	-0.088544	5.888815	0.102779	19.709660	8.621796	0.000000	0.411108	0.110664	-1.789670	0.763469	0.147183	-1.901525	0.675409	0.269069	-1.901525	0.469855	0.269069	-1.565962	0.381755	0.225667	-1.454107	0.234907	0.171419	-1.342253	2.936504	1.251856	-9.953610	0.000000	0.000000	26.830062	0.542087	2.033794	15.966978	-3.517190	72.316885	36.863202	4.532064	0.018268	8.080623	12.905383	-7.557165	61.356958	44.033701	72.350704	2.482589	-1.542561
0.066667	-5.515383	-3.747444	100.566510	0.303611	0.694984	0.919735	2.549750	-0.453189	-2.926951	1.281379	0.022364	16.757811	-0.374735	0.000000	6.345848	0.923277	0.513061	5.899376	0.102964	19.831876	8.784682	0.000000	0.397747	0.121177	-1.909800	0.738656	0.161165	-2.029163	0.653459	0.294629	-2.029163	0.454585	0.294629	-1.671075	0.369348	0.247103	-1.551713	0.227273	0.187702	-1.432350	2.841068	1.370773	-10.621736	0.000000	0.000000	26.931924	0.296903	1.650981	15.548810	-3.443494	72.037268	36.647053	5.032270	0.915672	7.727487	12.483017	-7.651738	61.108820	43.915409	74.463919	3.128347	-1.428380
0.083333	-5.459934	-3.699340	101.067862	0.302881	0.695250	0.919227	2.366647	-0.399350	-3.181579	1.121607	0.019576	16.767269	-0.606949	0.000000	6.321422	0.898333	0.926407	5.938923	0.103654	19.912775	8.984195	0.000000	0.382394	0.126371	-2.008473	0.710144	0.168073	-2.134002	0.628235	0.307258	-2.134002	0.437038	0.307258	-1.757414	0.355091	0.257695	-1.631884	0.218500	0.195748	-1.506354	2.731402	1.429531	-11.170522	0.000000	0.000000	26.974642	0.054571	1.299993	15.235111	-3.360306	71.859933	36.483716	5.434546	1.588767	7.540248	12.075186	-7.754976	60.757797	43.924794	76.381095	3.439808	-1.258330
0.100000	-5.442301	-3.659764	101.461657	0.302390	0.695450	0.918947	2.228567	-0.375656	-3.288167	1.007398	0.017582	16.752024	-0.941180	0.000000	6.314933	0.898138	1.170358	6.004195	0.104793	19.958061	9.217561	0.000000	0.365317	0.127019	-2.087280	0.678430	0.168935	-2.217735	0.600179	0.308834	-2.217735	0.417521	0.308834	-1.826370	0.339233	0.259017	-1.695915	0.208742	0.196752	-1.565460	2.609422	1.436865	-11.608825	0.000000	0.000000	26.958150	-0.184832	0.973925	15.015455	-3.271498	71.769407	36.367871	5.751546	2.062963	7.494498	11.690489	-7.863207	60.332968	44.037098	78.108865	3.471987	-1.049457
0.116667	-5.456308	-3.624711	101.759409	0.302105	0.695596	0.918873	2.127740	-0.376704	-3.268086	0.933400	0.016291	16.716366	-1.357865	0.000000	6.321471	0.917606	1.263774	6.091932	0.106324	19.973434	9.482008	0.000000	0.346784	0.123894	-2.147815	0.644012	0.164779	-2.282053	0.569731	0.301235	-2.282053	0.396339	0.301235	-1.879338	0.322023	0.252644	-1.745099	0.198152	0.191911	-1.610861	2.477041	1.401511	-11.945501	0.000000	0.000000	26.882380	-0.421229	0.665870	14.879413	-3.180942	71.750213	36.294196	5.995924	2.363667	7.565828	11.337522	-7.972761	59.863413	44.227563	79.653864	3.279902	-0.818810
0.133333	-5.495776	-3.590175	101.972633	0.301994	0.695698	0.918983	2.056396	-0.397092	-3.142706	0.894262	0.015608	16.664584	-1.837436	0.000000	6.336129	0.951649	1.225517	6.198872	0.108191	19.964598	9.774761	0.000000	0.327063	0.117767	-2.191669	0.607388	0.156630	-2.328649	0.537331	0.286339	-2.328649	0.373800	0.286339	-1.917711	0.303710	0.240151	-1.780731	0.186884	0.182421	-1.643752	2.336175	1.332206	-12.189407	0.000000	0.000000	26.747268	-0.654542	0.368923	14.816557	-3.092509	71.786876	36.257374	6.180336	2.516287	7.729830	11.024884	-8.079965	59.378210	44.471431	81.022726	2.918569	-0.583435
0.150000	-5.554528	-3.552152	102.112842	0.302024	0.695769	0.919254	2.006768	-0.431419	-2.933399	0.884631	0.015440	16.600968	-2.360328	0.000000	6.353999	0.995179	1.074449	6.321757	0.110335	19.937253	10.093046	0.000000	0.306422	0.109412	-2.220436	0.569055	0.145517	-2.359213	0.503420	0.266023	-2.359213	0.350209	0.266023	-1.942882	0.284543	0.223112	-1.804104	0.175089	0.169479	-1.665327	2.188739	1.237685	-12.349400	0.000000	0.000000	26.552745	-0.884695	0.076179	14.816461	-3.010070	71.863918	36.252082	6.317434	2.546231	7.962096	10.761170	-8.181149	58.906439	44.743944	82.222085	2.443006	-0.360380
0.166667	-5.626385	-3.506635	102.191551	0.302163	0.695820	0.919662	1.971086	-0.474282	-2.661536	0.899157	0.015693	16.529808	-2.906976	0.000000	6.370172	1.043109	0.829432	6.457325	0.112702	19.897102	10.434090	0.000000	0.285129	0.099599	-2.235708	0.529512	0.132467	-2.375440	0.468438	0.242165	-2.375440	0.325874	0.242165	-1.956245	0.264771	0.203102	-1.816513	0.162923	0.154279	-1.676781	2.036646	1.126685	-12.434337	0.000000	0.000000	26.298746	-1.111611	-0.219270	14.868696	-2.937498	71.965866	36.273003	6.419874	2.478908	8.238216	10.554980	-8.272641	58.477180	45.020346	83.258575	1.908229	-0.166693
0.183333	-5.697976	-3.431237	102.220642	0.302327	0.695887	0.920187	1.925326	-0.512346	-2.374321	0.938082	0.016373	16.455045	-3.421516	0.000000	6.359875	1.085176	0.587479	6.586405	0.114954	19.839897	10.701770	0.000000	0.264154	0.089876	-2.232690	0.490561	0.119536	-2.372233	0.433979	0.218525	-2.372233	0.301902	0.218525	-1.953603	0.245294	0.183276	-1.814060	0.150938	0.139218	-1.674517	1.886828	1.016699	-12.417550	0.000000	0.000000	25.954541	-1.311912	-0.570326	14.913252	-2.904636	71.840784	36.353405	6.531321	2.286243	8.589961	10.469504	-8.322148	58.220260	45.223350	83.928657	1.395422	-0.238218
0.200000	-5.760809	-3.333418	102.237509	0.302479	0.695982	0.920822	1.866094	-0.540476	-2.128959	0.978557	0.017079	16.406957	-3.859039	0.000000	6.339648	1.110367	0.241936	6.741862	0.117668	19.806456	11.089476	0.000000	0.242472	0.081228	-2.222181	0.450295	0.108033	-2.361067	0.398357	0.197497	-2.361067	0.277121	0.197497	-1.944409	0.225160	0.165639	-1.805522	0.138549	0.125822	-1.666636	1.731954	0.918864	-12.359105	0.000000	0.000000	25.520124	-1.533596	-0.981036	14.991861	-2.889713	71.752015	36.402968	6.702081	2.175485	8.861502	10.491993	-8.348532	58.141157	45.286910	84.624446	1.118577	-0.343906
0.216667	-5.807246	-3.212651	102.221232	0.302652	0.696099	0.921521	1.791183	-0.547320	-1.800174	1.011965	0.017662	16.338777	-4.372139	0.000000	6.296986	1.112695	-0.150078	6.898788	0.120407	19.784516	11.494456	0.000000	0.221078	0.075415	-2.206527	0.410565	0.100302	-2.344435	0.363210	0.183364	-2.344435	0.252670	0.183364	-1.930711	0.205293	0.153787	-1.792803	0.126324	0.116818	-1.654895	1.579141	0.853111	-12.272039	0.000000	0.000000	25.006338	-1.767801	-1.354277	15.142747	-2.893645	71.846484	36.447712	6.742757	2.011278	9.031282	10.619417	-8.367634	58.278654	45.264646	85.197002	1.012123	-0.433913
0.233333	-5.841974	-3.061811	102.212404	0.302761	0.696255	0.922273	1.690144	-0.542257	-1.558047	1.048505	0.018300	16.303769	-4.771524	0.000000	6.228483	1.097893	-0.580301	7.059638	0.123214	19.783256	11.975196	0.000000	0.198498	0.071511	-2.187687	0.368630	0.095109	-2.324417	0.326112	0.173871	-2.324417	0.226863	0.173871	-1.914226	0.184325	0.145825	-1.777496	0.113422	0.110770	-1.640765	1.417849	0.808943	-12.167258	0.000000	0.000000	24.442036	-2.011560	-1.764988	15.298458	-2.927920	71.910124	36.507490	6.877206	1.849993	9.092237	10.883981	-8.376275	58.708733	45.140450	85.656311	1.046306	-0.600784
0.250000	-5.867743	-2.906090	102.181235	0.302871	0.696412	0.923010	1.585607	-0.528089	-1.255127	1.079821	0.018846	16.248957	-5.225040	0.000000	6.154496	1.070635	-1.049295	7.220629	0.126024	19.798877	12.488232	0.000000	0.178958	0.068547	-2.169229	0.332343	0.091168	-2.304806	0.294011	0.166666	-2.304806	0.204531	0.166666	-1.898075	0.166181	0.139782	-1.762498	0.102257	0.106180	-1.626922	1.278281	0.775421	-12.064599	0.000000	0.000000	23.851962	-2.255842	-2.216059	15.505102	-2.963902	72.150224	36.524902	6.908215	1.834069	9.031089	11.127817	-8.362845	58.981309	44.955236	86.275609	1.386911	-0.815569
0.266667	-5.889810	-2.728699	102.156550	0.302922	0.696597	0.923718	1.459902	-0.512969	-1.109227	1.121942	0.019582	16.237939	-5.456915	0.000000	6.045402	1.040618	-1.466259	7.351386	0.128306	19.814084	12.963343	0.000000	0.158581	0.066641	-2.151928	0.294500	0.088632	-2.286423	0.260532	0.162031	-2.286423	0.181242	0.162031	-1.882937	0.147258	0.135894	-1.748441	0.090613	0.103227	-1.613946	1.132727	0.753855	-11.968376	0.000000	0.000000	23.286939	-2.484407	-2.654827	15.698429	-3.025004	72.317112	36.571872	7.082382	1.841843	8.892429	11.406624	-8.352976	59.326696	44.774091	86.551356	1.790283	-1.026545
0.283333	-5.890460	-2.550640	102.114518	0.302969	0.696781	0.924349	1.335333	-0.479635	-1.067726	1.165809	0.020347	16.242098	-5.505984	0.000000	5.929766	0.990271	-1.815303	7.464344	0.130277	19.835746	13.336704	0.000000	0.140972	0.067095	-2.132076	0.261798	0.089237	-2.265331	0.231602	0.163136	-2.265331	0.161116	0.163136	-1.865566	0.130906	0.136821	-1.732312	0.080551	0.103931	-1.599057	1.006946	0.758997	-11.857967	0.000000	0.000000	22.735748	-2.686014	-3.099744	15.837573	-3.089836	72.282291	36.623288	7.509154	1.829550	8.774545	11.649617	-8.327857	59.565233	44.600479	86.780827	2.233440	-1.275647
0.300000	-5.881553	-2.381184	102.073021	0.302985	0.696955	0.924881	1.211972	-0.440848	-1.091146	1.203024	0.020997	16.245050	-5.455874	0.000000	5.814519	0.936205	-2.081394	7.557712	0.131907	19.864281	13.611947	0.000000	0.126266	0.068272	-2.115564	0.234489	0.090802	-2.247787	0.207443	0.165996	-2.247787	0.144310	0.165996	-1.851119	0.117251	0.139220	-1.718896	0.072149	0.105753	-1.586673	0.901907	0.772306	-11.766133	0.000000	0.000000	22.225063	-2.856336	-3.534368	15.958096	-3.155561	72.205696	36.681324	7.879796	1.856572	8.665152	11.827946	-8.300663	59.691360	44.469428	86.795588	2.630323	-1.562993
0.316667	-5.863997	-2.231364	102.046205	0.302955	0.697106	0.925301	1.105785	-0.402472	-1.277084	1.249328	0.021805	16.283002	-5.186908	0.000000	5.701587	0.885194	-2.207908	7.610342	0.132826	19.883900	13.738449	0.000000	0.114928	0.069837	-2.107835	0.213433	0.092884	-2.239574	0.188816	0.169803	-2.239574	0.131351	0.169803	-1.844355	0.106722	0.142412	-1.712616	0.065670	0.108178	-1.580876	0.820921	0.790014	-11.723143	0.000000	0.000000	21.771373	-2.981821	-3.938295	16.052073	-3.208089	72.071525	36.729797	8.328331	1.911593	8.576002	11.879638	-8.265954	59.537597	44.408147	86.785584	3.019271	-1.791037
